# xmcd CD database file
#
# Track frame offsets:
#	150
#	43149
#	64973
#	83572
#	107821
#	126298
#	158148
#	182972
#	208071
#	218820
#	230843
#	269594
#	286142
#
# Disc length: 4269 seconds
#
# Revision: 0
# Processed by: cddbd v1.5.2PL0 Copyright (c) Steve Scherf et al.
# Submitted via: CDex 1.51
#
DISCID=ca10ab0d
DTITLE=divers - Diggin Deeper 2
DYEAR=1900
DGENRE=Jazz
TTITLE0=Deodato
TTITLE1=Lounie Smith
TTITLE2=Esther phillips
TTITLE3=Ramsey Lewis
TTITLE4=George Benson
TTITLE5=Eric Gale
TTITLE6=Freddie Hubbard
TTITLE7=Lee Ritenour
TTITLE8=Mongo Santamaria
TTITLE9=Os Ipanemas
TTITLE10=Ray Baretto
TTITLE11=Tom Scott
TTITLE12=Herbie Hancock
EXTD=
EXTT0=
EXTT1=
EXTT2=
EXTT3=
EXTT4=
EXTT5=
EXTT6=
EXTT7=
EXTT8=
EXTT9=
EXTT10=
EXTT11=
EXTT12=
PLAYORDER=
